<svg width="38" height="38" viewBox="0 0 38 38" fill="none" xmlns="http://www.w3.org/2000/svg">
<rect width="38" height="38" rx="19" fill="#EBEBEB"/>
<path d="M15.7107 28.9998C12.5853 28.9818 10 22.6017 10 19.3525C10 14.0449 13.9816 12.8829 15.5161 12.8829C16.2076 12.8829 16.946 13.1545 17.5973 13.3948C18.0527 13.5624 18.5237 13.7355 18.7857 13.7355C18.9425 13.7355 19.312 13.5883 19.6383 13.4591C20.334 13.1821 21.1998 12.8379 22.2079 12.8379C22.2097 12.8379 22.2121 12.8379 22.2139 12.8379C22.9667 12.8379 25.2492 13.0031 26.6215 15.0639L26.9429 15.5469L26.4803 15.896C25.8194 16.3947 24.6136 17.3043 24.6136 19.1062C24.6136 21.2403 25.9792 22.061 26.6353 22.4557C26.9249 22.63 27.2247 22.8096 27.2247 23.2025C27.2247 23.4591 25.1771 28.9679 22.2037 28.9679C21.4761 28.9679 20.9618 28.7492 20.5082 28.5564C20.0492 28.3611 19.6532 28.1929 18.9989 28.1929C18.6673 28.1929 18.2479 28.3497 17.8039 28.5161C17.1972 28.7426 16.5104 28.9998 15.7312 28.9998H15.7107Z" fill="black"/>
<path d="M22.5226 8C22.6001 10.7922 20.6032 12.7293 18.6087 12.6078C18.2801 10.3795 20.603 8 22.5226 8Z" fill="black"/>
</svg>
