<svg width="15" height="17" viewBox="0 0 15 17" fill="none" xmlns="http://www.w3.org/2000/svg">
<path d="M13.2227 5.87499L4.77019 1.02749C4.31281 0.763382 3.79368 0.625025 3.26553 0.626476C2.73738 0.627927 2.21902 0.769133 1.7631 1.03575C1.30718 1.30237 0.929947 1.6849 0.669714 2.1445C0.409482 2.60409 0.275521 3.12437 0.281438 3.65249V13.3825C0.281438 14.1762 0.596718 14.9373 1.15792 15.4985C1.71912 16.0597 2.48028 16.375 3.27394 16.375C3.79932 16.3741 4.31526 16.2353 4.77019 15.9725L13.2227 11.125C13.6769 10.8621 14.0539 10.4845 14.3161 10.0299C14.5782 9.57528 14.7162 9.05975 14.7162 8.53499C14.7162 8.01023 14.5782 7.4947 14.3161 7.04011C14.0539 6.58552 13.6769 6.20785 13.2227 5.94499V5.87499ZM12.3477 9.54124L3.89519 14.4587C3.70574 14.5661 3.4917 14.6225 3.27394 14.6225C3.05618 14.6225 2.84214 14.5661 2.65269 14.4587C2.46377 14.3497 2.3069 14.1928 2.19785 14.0039C2.08879 13.8149 2.0314 13.6006 2.03144 13.3825V3.61749C2.0314 3.39935 2.08879 3.18505 2.19785 2.99612C2.3069 2.8072 2.46377 2.65031 2.65269 2.54124C2.84292 2.4355 3.05632 2.3784 3.27394 2.37499C3.4914 2.37946 3.70456 2.4365 3.89519 2.54124L12.3477 7.42374C12.5367 7.53277 12.6936 7.68963 12.8027 7.87856C12.9119 8.06748 12.9693 8.28182 12.9693 8.49999C12.9693 8.71817 12.9119 8.9325 12.8027 9.12143C12.6936 9.31036 12.5367 9.46722 12.3477 9.57624V9.54124Z" fill="white"/>
</svg>
