<svg width="28" height="28" viewBox="0 0 28 28" fill="none" xmlns="http://www.w3.org/2000/svg">
<path fill-rule="evenodd" clip-rule="evenodd" d="M14 19C18.4183 19 22 15.4183 22 11C22 6.58172 18.4183 3 14 3C9.58172 3 6 6.58172 6 11C6 15.4183 9.58172 19 14 19ZM13.4462 12.9816C13.3724 12.9816 13.3108 12.957 13.2616 12.9078C13.2124 12.8586 13.1878 12.8011 13.1878 12.7355C13.1878 12.5632 13.1919 12.4319 13.2001 12.3416C13.2411 11.956 13.3642 11.6155 13.5693 11.3201C13.7744 11.0247 14.0575 10.6965 14.4185 10.3355C14.6975 10.0565 14.9047 9.82677 15.0401 9.64626C15.1755 9.46575 15.2514 9.27703 15.2678 9.0801C15.3006 8.74369 15.1919 8.47703 14.9416 8.28011C14.6914 8.08318 14.3898 7.98472 14.037 7.98472C13.2411 7.98472 12.7611 8.38267 12.597 9.17857C12.5396 9.36729 12.4206 9.46164 12.2401 9.46164H11.1693C11.0873 9.46164 11.0196 9.43293 10.9662 9.37549C10.9129 9.31805 10.8862 9.24421 10.8862 9.15395C10.9026 8.70267 11.0401 8.28011 11.2985 7.88626C11.557 7.49241 11.9283 7.17447 12.4124 6.93241C12.8965 6.69036 13.4667 6.56934 14.1232 6.56934C14.8042 6.56934 15.3642 6.67805 15.8032 6.89549C16.2421 7.11293 16.5621 7.38985 16.7632 7.72626C16.9642 8.06267 17.0647 8.41139 17.0647 8.77241C17.0647 9.18267 16.9724 9.53959 16.7878 9.84318C16.6032 10.1468 16.3303 10.4955 15.9693 10.8893C15.7067 11.1683 15.5037 11.4083 15.3601 11.6093C15.2165 11.8104 15.1201 12.0257 15.0708 12.2555C15.038 12.4606 15.0175 12.6001 15.0093 12.674C14.9683 12.7806 14.9232 12.8586 14.8739 12.9078C14.8247 12.957 14.7549 12.9816 14.6647 12.9816H13.4462ZM13.4094 15.3077C13.3273 15.3077 13.2576 15.279 13.2002 15.2216C13.1427 15.1641 13.114 15.0944 13.114 15.0124V13.917C13.114 13.8349 13.1427 13.7652 13.2002 13.7077C13.2576 13.6503 13.3273 13.6216 13.4094 13.6216H14.6279C14.7099 13.6216 14.7817 13.6503 14.8432 13.7077C14.9048 13.7652 14.9356 13.8349 14.9356 13.917V15.0124C14.9356 15.0944 14.9068 15.1641 14.8494 15.2216C14.792 15.279 14.7181 15.3077 14.6279 15.3077H13.4094Z" fill="#FBFBFB"/>
</svg>
